<svg width="96" height="32" viewBox="0 0 96 32" fill="none" xmlns="http://www.w3.org/2000/svg">
<path fill-rule="evenodd" clip-rule="evenodd" d="M50.8578 6.71264V25.2874C50.8578 29.7625 54.1828 32 60.8328 32C67.5136 32 70.854 29.7625 70.854 25.2874V6.71264C70.854 2.23755 67.5136 0 60.8328 0C54.1828 0 50.8578 2.23755 50.8578 6.71264ZM67.5752 7.21839V24.7816C67.5752 27.7241 65.3277 29.1954 60.8328 29.1954C56.3687 29.1954 54.1366 27.7241 54.1366 24.7816V7.21839C54.1366 4.27586 56.3687 2.8046 60.8328 2.8046C65.3277 2.8046 67.5752 4.27586 67.5752 7.21839ZM9.92883 31.6322H0.554167C0.184723 31.6322 0 31.4023 0 30.9425V1.05747C0 0.597702 0.200116 0.367817 0.600348 0.367817H9.92883C16.6096 0.367817 19.95 2.60536 19.95 7.08046V24.9195C19.95 29.3946 16.6096 31.6322 9.92883 31.6322ZM9.92883 3.17241H3.23264V28.8276H9.92883C14.4237 28.8276 16.6712 27.3563 16.6712 24.4138V7.58621C16.6712 4.64368 14.4237 3.17241 9.92883 3.17241ZM36.5141 0.367817C36.9143 0.367817 37.1914 0.597702 37.3453 1.05747L46.5814 30.9425C46.7354 31.4023 46.5506 31.6322 46.0273 31.6322H44.0415C43.6105 31.6322 43.3334 31.4023 43.2102 30.9425L40.6703 22.7586H30.095L27.6012 30.9425C27.4781 31.4023 27.2164 31.6322 26.8161 31.6322H24.9689C24.5071 31.6322 24.3378 31.4023 24.4609 30.9425L33.6509 1.05747C33.8048 0.597702 34.0973 0.367817 34.5283 0.367817H36.5141ZM39.9776 20.1379L36.6064 9.37931C36.3909 8.67433 36.0061 6.81992 35.4519 3.81609C35.144 6.05364 34.7592 7.8774 34.2974 9.28736L30.88 20.1379H39.9776ZM85.33 24.2211C85.33 24.7164 85.5963 24.9641 86.1288 24.9641H87.3841C87.9167 24.9641 88.1829 24.7164 88.1829 24.2211L87.8976 17.881L94.1741 21.3978C94.7447 21.695 95.1441 21.6124 95.3723 21.1501L95.8859 20.209C96.1141 19.7797 96 19.4495 95.5435 19.2184L89.1529 16.1969L95.5435 13.0764C95.962 12.8453 96.0761 12.5316 95.8859 12.1353L95.3723 11.1447C95.1441 10.6824 94.7447 10.5998 94.1741 10.897L87.8406 14.4633L88.1829 7.87557C88.1829 7.38026 87.9167 7.1326 87.3841 7.1326H86.1288C85.5963 7.1326 85.33 7.38026 85.33 7.87557L85.6153 14.4633L79.2247 10.897C78.7302 10.6329 78.3498 10.7154 78.0835 11.1447L77.5129 12.1353C77.2847 12.5646 77.3988 12.8783 77.8553 13.0764L84.2459 16.1969L77.8553 19.2184C77.3608 19.4495 77.2467 19.7797 77.5129 20.209L78.0835 21.1006C78.3498 21.5629 78.7302 21.662 79.2247 21.3978L85.5582 17.8315L85.33 24.2211Z" fill="#E9E9E9"/>
</svg>
