<svg width="1448" height="1176" viewBox="0 0 1448 1176" fill="none" opacity="0.1" xmlns="http://www.w3.org/2000/svg">
<path d="M-168.998 -11.7121C-99.2616 26.1726 -33.921 32.4867 35.5776 -10.4843C89.7509 -44.1596 134.658 -100.46 186.574 -139.924C227.323 -170.793 259.28 -170.793 301.692 -147.466C333.768 -129.751 363.469 -105.021 391.031 -75.0286C433.918 -28.1989 471.34 27.9265 520.405 61.7772C600.239 117.026 693.498 119.306 779.867 114.395C924.566 106.327 1064.75 64.5835 1198.05 -19.2539C1283.82 -73.2747 1366.98 -145.01 1459.88 -169.039C1518.93 -184.298 1577.73 -169.039 1635.59 -195.523C1689.76 -220.429 1752.73 -273.923 1805.48 -214.641C1812.01 -55.0339 1840.76 95.9787 1814.86 256.112C1800.25 346.789 1765.08 423.085 1741.56 508.501C1718.51 592.514 1704.26 680.736 1688.22 767.906C1678.6 820.173 1658.76 881.911 1688.58 926.811C1704.61 951.015 1724.1 970.133 1740.49 993.811C1777.44 1047.13 1806.07 1110.27 1832.44 1175.52C1596.74 1165.34 1361.52 1143.07 1126.88 1107.64C886.312 1071.51 646.097 1016.44 404.336 1001C136.44 983.814 -125.16 1040.29 -383.434 1144.47C-383.553 1035.91 -393.532 904.887 -361.574 802.984C-331.399 706.87 -264.752 684.244 -214.261 619.875C-146.663 533.582 -231.368 454.48 -271.523 389.41C-298.848 345.211 -330.33 283.473 -298.253 230.154C-273.305 188.761 -234.933 163.855 -204.995 131.057C-189.075 113.518 -171.136 93.6986 -163.295 65.9866C-154.385 33.8899 -158.306 20.5601 -168.998 -11.7121Z" stroke="white" stroke-miterlimit="10"/>
<path d="M-383.673 1108.34C-233.627 1050.46 -85.3633 1001.35 69.3158 980.655C180.751 965.746 292.662 961.361 404.454 966.272C643.6 976.621 882.153 1031.87 1119.64 1069.75C1351.54 1106.76 1584.39 1129.91 1817.59 1139.56" stroke="white" stroke-miterlimit="10"/>
<path d="M-383.673 1074.31C-300.393 1043.8 -217.708 1008.89 -133.359 984.864C-66.4739 965.746 1.71793 957.853 69.5534 950.136C179.92 937.508 290.523 932.246 401.127 934.877C638.135 940.314 875.975 994.159 1111.08 1033.8C1341.08 1072.56 1572.27 1097.82 1803.69 1107.46" stroke="white" stroke-miterlimit="10"/>
<path d="M-383.673 1042.57C-298.968 1013.1 -215.45 975.218 -129.914 951.014C-62.5535 931.896 6.3512 927.686 74.6618 921.548C183.246 911.726 291.949 906.289 400.771 906.99C633.74 908.569 868.847 959.082 1099.68 999.773C1328.85 1040.29 1559.2 1068.88 1790.03 1079.4" stroke="white" stroke-miterlimit="10"/>
<path d="M-383.434 1012.58C-296.946 984.162 -212.479 943.12 -125.398 918.565C-59.3442 899.974 8.25365 899.623 75.2575 895.238C184.317 888.222 293.376 882.785 402.554 882.084C631.484 880.505 863.384 926.282 1090.06 967.675C1318.15 1009.42 1547.44 1042.74 1777.2 1054.32" stroke="white" stroke-miterlimit="10"/>
<path d="M-382.958 984.337C-296.946 957.853 -213.666 915.408 -127.536 889.976C-58.2746 869.455 12.8873 873.139 83.2175 870.508C192.515 866.474 301.693 861.738 410.99 859.984C636.593 856.301 865.879 896.817 1089.11 939.086C1313.4 981.706 1538.77 1019.42 1764.97 1032.57" stroke="white" stroke-miterlimit="10"/>
<path d="M-382.247 957.853C-294.097 932.422 -209.391 886.82 -121.36 861.037C-53.0492 840.867 16.8058 848.409 86.1857 848.059C196.195 847.532 306.205 843.498 416.215 840.692C640.155 835.08 867.897 869.106 1089.58 912.603C1309.96 955.749 1531.16 998.72 1753.44 1013.63" stroke="white" stroke-miterlimit="10"/>
<path d="M-381.176 932.947C-290.649 908.743 -204.4 859.633 -114.23 833.324C-44.731 813.154 26.1932 825.081 96.5235 826.835C205.345 829.641 314.286 826.835 423.108 823.327C643.127 816.311 866.355 842.269 1084.12 885.942C1302.83 929.79 1521.78 979.425 1742.51 996.965" stroke="white" stroke-miterlimit="10"/>
<path d="M-379.75 909.445C-287.204 886.469 -199.766 834.202 -107.933 807.543C-37.3652 787.022 34.1531 803.158 105.434 807.367C214.374 813.857 323.434 812.278 432.374 808.244C649.187 800.351 868.375 817.715 1083.17 861.563C1299.03 905.762 1514.42 962.413 1732.18 982.408" stroke="white" stroke-miterlimit="10"/>
<path d="M-377.85 887.522C-282.69 865.773 -193.47 809.823 -99.261 782.638C-27.2676 761.941 45.3199 782.813 117.789 789.478C225.779 799.3 333.888 799.3 441.878 795.09C654.888 786.672 869.205 794.389 1080.43 837.886C1294.39 882.085 1506.93 946.804 1722.79 969.956" stroke="white" stroke-miterlimit="10"/>
<path d="M-375.474 866.825C-277.582 846.305 -186.58 786.321 -89.757 758.96C-18.2387 738.79 52.9231 763.169 124.56 772.289C233.738 786.145 343.154 787.899 452.689 783.339C664.392 774.394 875.858 772.289 1086.02 816.839C1295.58 861.213 1502.77 932.773 1714 958.906" stroke="white" stroke-miterlimit="10"/>
<path d="M-372.505 847.356C-271.762 828.239 -178.978 764.045 -79.5414 736.509C-6.47869 716.339 65.7524 745.804 138.577 757.205C248.468 774.393 358.716 777.901 469.082 772.99C675.558 763.694 880.253 751.943 1085.54 795.44C1293.21 839.288 1496.83 919.793 1705.92 949.259" stroke="white" stroke-miterlimit="10"/>
<path d="M-368.823 828.941C-268.436 811.752 -176.247 747.384 -77.7605 717.743C-1.49021 694.766 70.9785 727.389 146.655 741.947C257.853 763.344 369.763 768.957 481.674 763.52C686.962 753.873 888.687 731.423 1093.26 775.797C1296.53 819.821 1494.33 907.516 1698.79 940.315" stroke="white" stroke-miterlimit="10"/>
<path d="M-364.426 811.577C-261.425 795.792 -167.216 727.214 -66.235 697.397C11.5798 674.246 85.3552 711.955 162.22 728.968C272.467 753.347 383.665 760.714 495.1 755.277C586.34 750.892 677.341 737.036 768.58 731.774C877.878 725.46 987.056 732.3 1095.28 755.627C1296.53 799.125 1490.53 895.765 1692.5 932.247" stroke="white" stroke-miterlimit="10"/>
<path d="M-359.317 795.09C-254.297 780.883 -158.781 708.797 -56.137 678.279C23.3409 654.601 97.354 696.695 175.406 716.164C286.01 744.051 397.921 753.171 509.95 747.208C600.12 742.473 689.815 725.109 779.866 717.392C887.263 708.271 994.777 713.182 1101.22 736.334C1299.38 779.48 1488.4 884.364 1686.91 924.178" stroke="white" stroke-miterlimit="10"/>
<path d="M-353.375 779.305C-245.741 766.502 -148.562 689.855 -43.5417 659.513C37.4807 636.186 112.682 683.015 191.803 704.939C301.457 735.282 412.655 745.981 524.09 739.667C613.904 734.58 703.005 713.533 792.462 703.361C896.888 691.609 1001.31 694.591 1105.03 716.866C1301.29 759.135 1486.02 872.964 1681.93 916.637" stroke="white" stroke-miterlimit="10"/>
<path d="M-346.604 764.397C-236.476 753.171 -137.871 671.439 -30.4747 641.622C49.9536 619.348 123.373 668.282 201.306 692.311C312.385 726.512 425.365 739.316 538.583 732.475C628.04 727.038 716.665 702.133 805.766 689.68C909.48 675.122 1013.43 676.35 1116.55 699.151C1308.53 741.771 1486.73 862.09 1678 908.919" stroke="white" stroke-miterlimit="10"/>
<path d="M-338.765 749.839C-229.943 740.718 -132.169 660.038 -26.7929 626.889C18.2327 612.682 55.4175 615.664 99.1363 635.308C138.578 653.198 178.377 668.808 218.531 682.137C330.323 718.794 444.135 732.826 558.421 724.407C644.433 718.093 729.614 690.732 815.032 675.999C917.438 658.284 1020.32 657.057 1122.49 679.331C1312.81 720.899 1486.38 849.637 1675.15 900.149" stroke="white" stroke-miterlimit="10"/>
<path d="M-329.973 735.983C-219.844 728.616 -121.239 644.428 -14.7933 610.753C30.9451 596.196 68.011 599.879 112.324 621.277C152.122 640.394 192.396 657.407 233.145 671.614C345.174 710.902 459.579 726.161 574.46 716.339C659.878 708.972 744.108 678.805 828.695 661.617C929.675 641.096 1031.25 637.939 1132.23 660.038C1319.94 701.08 1487.92 837.008 1673.25 890.678" stroke="white" stroke-miterlimit="10"/>
<path d="M-320.111 722.478C-208.201 716.865 -108.408 628.117 -0.417547 594.442C47.1029 579.709 82.5056 585.848 128.006 608.824C165.904 627.942 204.158 645.13 243.006 659.688C356.342 702.132 472.411 719.145 589.192 707.745C674.729 699.326 758.721 666.177 843.308 646.533C944.051 623.206 1045.27 618.471 1146.25 641.272C1330.04 682.489 1491.49 824.03 1672.3 880.33" stroke="white" stroke-miterlimit="10"/>
<path d="M-309.066 709.322C-195.73 705.639 -94.9868 612.156 14.429 578.48C63.4938 563.397 97.9462 572.692 143.922 596.896C182.295 617.066 221.143 635.132 260.466 650.391C372.614 693.888 487.851 711.427 603.564 698.097C689.457 688.276 773.33 652.496 858.036 630.396C956.403 604.789 1055.48 598.3 1154.44 620.224C1336.92 660.564 1493.62 808.945 1672.18 868.227" stroke="white" stroke-miterlimit="10"/>
<path d="M-296.827 696.345C-182.303 694.766 -80.8467 596.196 29.6383 563.047C74.3076 549.542 108.997 557.083 150.815 580.411C192.515 603.562 235.045 624.258 278.051 641.447C389.012 685.646 503.18 703.185 617.823 687.575C704.191 675.824 788.183 637.764 873.126 613.384C971.493 585.146 1070.81 576.903 1170.13 600.054C1248.54 618.295 1323.14 652.672 1395.85 698.975C1487.21 757.205 1575.95 820.346 1673.25 854.548" stroke="white" stroke-miterlimit="10"/>
<path d="M-283.403 683.365C-168.76 683.891 -67.3041 581.638 42.9433 548.138C130.024 521.654 209.859 597.248 292.307 630.923C403.267 676.35 517.791 693.889 632.434 675.297C718.803 661.266 802.32 621.803 887.144 595.143C984.798 564.45 1083.4 554.803 1182.48 577.779C1260.06 595.845 1333.84 630.923 1405.24 678.805C1493.98 738.438 1579.87 803.509 1675.15 838.587" stroke="white" stroke-miterlimit="10"/>
<path d="M-268.553 670.387C-153.434 673.193 -51.9783 565.854 58.6255 532.88C142.618 507.799 222.096 584.27 301.336 618.12C415.029 666.528 532.761 684.243 650.374 660.741C735.792 643.552 818.121 603.387 901.876 575.149C997.867 542.877 1094.93 531.301 1192.58 553.752C1269.92 571.466 1343.34 606.72 1413.91 656.18C1500.75 717.041 1584.39 784.392 1678.12 820.522" stroke="white" stroke-miterlimit="10"/>
<path d="M-248.002 653.549C-134.309 660.214 -33.5659 549.191 75.7311 517.795C121.707 504.641 152.477 519.725 195.007 544.455C235.162 567.782 275.911 588.654 317.491 606.018C429.877 653.023 546.421 670.562 662.252 645.13C748.739 626.188 831.9 585.497 916.843 555.856C1013.55 522.005 1111.44 509.552 1210.04 532.178C1284.77 549.366 1355.22 583.567 1423.17 632.326C1508.35 693.538 1590.09 761.941 1681.92 800.001" stroke="white" stroke-miterlimit="10"/>
<path d="M-223.765 630.572C-116.606 642.323 -16.5755 536.562 85.831 504.641C130.738 490.609 162.22 503.062 203.919 526.214C244.668 548.84 286.011 569.185 327.948 586.373C440.096 632.151 556.283 652.145 672.114 628.818C759.077 611.454 842.832 571.64 928.131 542.525C1023.77 509.727 1120.71 495.345 1218.48 514.638C1296.18 529.897 1367.34 564.274 1437.67 614.787C1519.52 673.543 1598.88 737.912 1685.96 778.603" stroke="white" stroke-miterlimit="10"/>
<path d="M-206.183 608.648C-157.593 616.366 -111.142 592.688 -65.7597 569.536C-10.5172 541.298 43.8937 506.219 101.393 488.505C145.469 475 176.238 487.277 217.462 509.026C257.973 530.424 298.96 550.067 340.54 566.73C452.332 611.63 568.163 634.08 683.756 613.033C771.194 597.072 855.899 558.662 941.792 530.599C1037.31 499.379 1134.13 484.822 1231.79 502.361C1308.53 516.217 1377.67 548.84 1447.41 597.423C1527.72 653.198 1605.89 714.234 1690 757.03" stroke="white" stroke-miterlimit="10"/>
<path d="M-194.422 587.776C-145.832 597.423 -98.5494 573.745 -52.9298 550.944C3.50077 522.881 59.3373 488.154 117.906 470.79C162.1 457.811 192.395 470.79 234.094 491.837C274.486 512.183 315.235 530.95 356.459 547.261C468.013 591.284 583.607 616.19 698.962 596.546C785.687 581.813 870.155 545.858 955.573 519.9C1052.04 490.434 1149.57 476.754 1247.94 493.767C1321.72 506.57 1387.41 536.913 1455.13 581.287C1534.61 633.378 1612.31 690.556 1694.04 735.105" stroke="white" stroke-miterlimit="10"/>
<path d="M-188.124 567.783C-139.297 579.008 -90.9447 555.33 -44.7311 533.23C13.4814 505.518 70.9812 470.966 131.095 453.252C211.285 429.749 292.308 495.521 369.172 525.864C479.895 569.537 594.775 598.301 709.537 581.463C796.618 568.66 881.917 535.16 967.811 511.306C1064.28 484.296 1161.58 471.492 1259.59 487.629C1415.57 513.411 1553.38 630.924 1697.96 713.358" stroke="white" stroke-miterlimit="10"/>
<path d="M-186.58 548.314C-136.802 560.942 -86.906 537.089 -39.6231 515.516C20.9654 487.804 80.7224 453.252 143.093 435.011C187.762 421.857 219.363 431.679 262.013 451.673C301.692 470.09 341.491 487.804 381.646 503.765C491.418 547.437 605.229 580.235 719.397 566.555C806.835 556.207 892.966 525.338 979.334 503.765C1075.68 479.736 1172.86 468.16 1270.4 483.595C1421.39 507.623 1562.05 609 1701.88 691.258" stroke="white" stroke-miterlimit="10"/>
<path d="M-189.074 529.198C-138.346 542.879 -86.7865 519.201 -38.3156 497.978C24.7678 470.442 87.0196 436.065 151.647 416.597C174.576 409.756 199.405 402.565 222.809 407.301C239.917 410.809 256.668 421.332 273.062 428.699C312.148 446.238 351.471 463.426 390.913 479.387C499.259 523.235 611.408 560.769 724.506 551.824C813.37 544.808 901.401 516.395 989.314 497.277C1084.71 476.405 1180.82 466.408 1277.05 480.79C1424.48 502.889 1569.3 587.253 1705.92 668.985" stroke="white" stroke-miterlimit="10"/>
<path d="M-195.135 510.256C-142.981 524.638 -89.6394 501.136 -39.5053 480.264C26.5481 452.728 91.6511 418.526 158.892 397.479C205.581 382.922 239.083 385.377 283.871 404.67C324.976 422.56 366.082 440.275 407.306 457.288C513.514 500.785 623.167 541.827 734.246 536.214C824.416 531.654 913.992 506.222 1003.45 489.911C1098.37 472.722 1193.89 465.005 1289.28 479.563C1355.46 489.735 1418.54 512.887 1482.69 537.968C1559.8 568.311 1636.18 601.46 1710.08 646.009" stroke="white" stroke-miterlimit="10"/>
<path d="M-204.043 491.489C-150.107 506.572 -94.7459 483.07 -42.8298 462.373C30.5893 433.083 103.058 395.199 177.784 373.976C223.879 360.822 258.331 365.557 303 384.149C340.541 399.934 378.082 416.07 415.624 431.68C522.069 476.405 631.723 523.234 743.396 520.779C833.21 518.85 922.904 497.276 1012.24 484.122C1108.23 470.091 1204.7 464.478 1300.93 479.562C1365.32 489.559 1427.81 511.308 1491.13 530.776C1567.16 554.279 1642.6 579.886 1714.71 623.383" stroke="white" stroke-miterlimit="10"/>
<path d="M-215.212 472.547C-159.375 488.157 -101.994 464.83 -47.9399 444.309C29.0432 414.843 104.957 377.31 183.009 353.982C228.985 340.302 267.596 341.003 312.622 359.244C349.569 374.153 386.397 389.762 423.225 405.548C530.028 451.325 639.325 503.767 751.592 504.819C841.168 505.696 930.981 487.806 1020.08 477.984C1115.24 467.461 1210.64 463.953 1305.68 478.511C1370.55 488.508 1434.34 508.678 1498.85 523.236C1573.93 540.073 1648.54 557.963 1719.23 600.583" stroke="white" stroke-miterlimit="10"/>
<path d="M-228.044 453.252C-165.317 470.616 -98.7883 442.728 -38.1997 419.576C36.7638 390.987 110.896 356.084 186.691 333.282C233.855 319.075 274.841 315.567 321.174 333.633C360.022 348.717 398.632 365.029 437.124 382.042C540.362 427.294 645.263 482.543 753.847 488.506C844.73 493.417 936.564 478.333 1027.33 471.668C1123.56 464.477 1219.9 463.249 1315.78 478.333C1379.57 488.331 1442.42 506.397 1506.22 515.342C1580.47 525.69 1654.36 536.038 1723.98 577.782" stroke="white" stroke-miterlimit="10"/>
<path d="M-241.823 433.434C-177.552 451.149 -109.36 423.963 -46.9894 400.987C30.9441 372.398 107.927 338.021 186.455 313.291C238.608 296.804 283.278 290.666 334.956 309.959C370.359 323.113 405.524 337.846 440.451 353.456C545.472 400.285 651.323 462.374 761.927 471.494C851.978 478.861 943.337 467.636 1033.51 464.128C1129.97 460.269 1226.56 461.146 1322.55 476.055C1385.04 485.877 1446.1 502.013 1508.95 505.52C1583.91 509.73 1659.23 512.01 1729.8 554.104" stroke="white" stroke-miterlimit="10"/>
<path d="M-256.078 413.086C-189.668 431.502 -119.576 404.141 -55.1855 381.515C25.8369 353.102 105.909 318.199 187.288 292.242C239.798 275.404 288.506 265.232 341.254 283.823C378.439 296.977 415.267 312.412 451.858 328.898C555.215 376.078 658.69 442.025 767.631 453.776C857.682 463.423 949.159 455.881 1039.33 455.355C1134.96 454.829 1230.72 457.635 1325.88 472.192C1389.79 482.014 1451.45 496.747 1515.96 495.344C1590.09 493.765 1665.29 488.854 1735.38 530.597" stroke="white" stroke-miterlimit="10"/>
<path d="M-270.098 391.689C-202.619 410.631 -131.219 383.971 -65.5221 361.697C23.1035 331.705 110.422 293.996 199.523 266.811C252.033 250.85 299.554 241.379 351.945 259.269C388.179 271.546 423.938 286.279 459.46 302.59C561.272 349.77 661.659 418.699 768.818 434.484C861.245 448.164 955.93 442.727 1048.71 445.183C1143.16 447.638 1237.61 452.549 1331.58 466.58C1396.92 476.402 1458.7 489.206 1524.51 483.067C1595.44 476.578 1675.03 461.494 1741.68 506.92" stroke="white" stroke-miterlimit="10"/>
<path d="M-283.284 369.414C-214.38 389.408 -141.911 362.924 -74.4318 340.825C16.8074 311.009 106.859 273.125 198.454 245.063C251.677 228.751 301.692 216.123 355.272 232.961C391.031 244.186 426.434 258.217 461.361 274.528C564.362 322.409 664.63 396.599 772.858 415.366C865.404 431.326 960.445 428.87 1053.35 433.781C1148.98 438.868 1244.5 445.532 1339.66 459.388C1402.62 468.508 1461.55 479.558 1524.87 470.087C1596.74 459.564 1680.26 435.36 1748.33 483.592" stroke="white" stroke-miterlimit="10"/>
<path d="M-295.045 345.913C-225.903 366.96 -152.959 340.826 -85.0046 319.779C13.6004 289.261 110.542 247.342 209.385 218.753C261.301 203.669 310.128 192.795 362.282 208.054C397.209 218.227 431.661 231.732 465.639 247.517C568.996 295.75 668.551 374.326 777.135 394.497C869.325 411.685 964.009 412.211 1056.79 419.402C1152.9 426.769 1248.89 435.012 1344.65 447.991C1409.16 456.761 1468.8 465.706 1533.42 453.078C1603.99 439.222 1688.81 409.405 1755.94 459.392" stroke="white" stroke-miterlimit="10"/>
<path d="M-304.669 320.833C-235.289 343.283 -161.632 317.501 -93.3218 297.155C7.06515 267.163 105.789 225.771 206.295 196.305C258.567 181.046 308.939 167.892 361.805 181.572C396.495 190.517 430.591 203.321 464.212 218.58C567.806 265.936 666.055 347.668 774.164 371.346C869.561 392.218 968.404 393.972 1064.63 403.267C1160.39 412.563 1256.14 421.859 1351.77 433.61C1416.28 441.503 1475.68 448.518 1540.19 433.435C1610.17 417.123 1697.25 382.396 1763.78 435.364" stroke="white" stroke-miterlimit="10"/>
<path d="M-311.677 294.348C-243.485 318.728 -170.066 293.471 -102.468 274.178C-1.36827 245.239 97.9495 205.074 198.812 174.731C251.322 158.77 303.594 143.687 357.173 155.263C393.645 163.155 429.642 175.608 464.807 191.569C569.471 238.749 667.363 323.989 776.541 348.544C871.939 369.942 970.543 373.625 1066.77 384.324C1163.12 395.023 1259.59 404.845 1356.05 415.018C1421.99 421.858 1483.29 427.12 1548.87 410.458C1618.13 392.743 1707.11 355.034 1772.57 411.51" stroke="white" stroke-miterlimit="10"/>
<path d="M-314.054 266.286C-240.041 295.051 -158.424 266.637 -85.0051 244.538C8.37254 216.3 100.443 180.169 193.702 151.054C249.064 133.69 303.475 119.133 359.905 131.761C393.288 139.303 426.196 150.703 458.51 165.612C565.193 214.721 663.68 303.82 775.947 325.043C970.068 361.524 1168.11 368.014 1363.3 387.131C1428.76 393.445 1487.8 397.129 1552.67 377.309C1626.21 354.859 1718.28 308.205 1790.03 363.103" stroke="white" stroke-miterlimit="10"/>
<path d="M-304.432 238.574C-229.706 269.443 -149.634 244.362 -75.2644 220.859C14.1929 192.621 102.106 155.263 191.325 125.446C246.33 107.03 299.672 92.4723 355.627 106.504C390.436 115.273 424.532 128.954 457.677 146.318C565.311 202.618 662.609 292.068 778.797 306.45C975.175 330.83 1172.62 325.568 1369.36 342.23C1398.46 344.686 1427.81 350.298 1456.79 351.175C1493.86 352.227 1531.28 336.793 1566.92 323.112C1641.41 294.173 1733.48 239.275 1809.4 287.157" stroke="white" stroke-miterlimit="10"/>
<path d="M-284.592 211.036C-209.866 243.659 -131.695 221.385 -57.2065 196.304C27.6175 167.715 110.541 128.778 195.008 98.0842C248.588 78.6157 299.553 64.5844 354.083 80.545C388.535 90.5423 422.156 105.977 454.826 125.095C565.905 190.34 662.491 280.667 785.331 291.191C984.442 308.204 1183.2 277.861 1382.31 286.28C1411.18 287.507 1440.28 292.769 1469.03 292.944C1506.57 293.12 1544.47 275.405 1580.11 259.795C1653.65 227.523 1744.41 167.189 1820.92 211.738" stroke="white" stroke-miterlimit="10"/>
<path d="M-258.218 183.5C-184.324 217.526 -108.885 198.233 -35.2281 171.223C44.131 142.108 121.352 101.417 200.236 69.4958C251.914 48.6242 299.91 35.2944 352.539 53.1844C386.991 64.7602 420.374 81.9486 452.569 103.171C503.654 136.671 551.293 180.343 602.496 213.492C663.441 252.956 728.188 273.476 794.597 277.335C997.272 289.262 1196.03 225.945 1397.87 221.911C1426.5 221.385 1455.25 225.068 1483.88 224.717C1521.07 224.016 1558.13 206.301 1593.3 189.815C1664.1 156.315 1751.78 93.6999 1826.38 137.723" stroke="white" stroke-miterlimit="10"/>
<path d="M-229.109 155.261C-83.5781 225.944 70.507 100.188 207.841 38.2749C257.262 16.0002 301.694 4.95052 351.947 24.7698C384.498 37.5734 415.862 55.288 446.156 77.0365C498.904 114.921 547.375 164.557 601.073 199.635C664.631 241.203 732.942 259.619 802.203 262.426C916.371 267.161 1031.37 244.536 1143.4 214.368C1234.16 189.989 1324.45 159.821 1416.76 151.578C1443.73 149.123 1470.58 150.175 1497.55 149.824C1533.9 149.298 1569.42 133.162 1603.75 116.5C1671 83.7014 1755.23 19.8588 1826.15 65.8114" stroke="white" stroke-miterlimit="10"/>
<path d="M-200.717 125.973C-57.2051 198.761 80.723 71.952 213.661 5.65373C258.212 -16.6211 296.941 -27.1446 342.561 -8.02684C377.726 6.7061 411.465 27.7532 443.66 53.3604C494.151 93.8761 540.483 145.091 592.875 180.52C660.354 226.122 734.01 243.31 807.786 245.415C927.775 248.923 1048.36 215.598 1164.07 171.049C1252.34 137.023 1339.66 94.9284 1430.66 79.6693C1459.41 74.7583 1487.92 74.4075 1516.79 73.1797C1552.19 71.6012 1586.29 56.6929 1619.67 40.0306C1680.26 9.68776 1759.62 -51.1734 1822.94 -2.23892" stroke="white" stroke-miterlimit="10"/>
<path d="M-176.958 94.9269C-35.7035 169.118 86.1865 45.1157 214.135 -27.6718C256.785 -51.8759 292.069 -60.6455 336.025 -40.8262C371.19 -24.8656 404.811 -2.06466 436.412 25.4718C486.071 68.7936 531.097 123.165 583.726 159.296C654.887 208.405 733.89 223.314 811.705 224.191C937.159 225.769 1062.38 184.026 1180.94 125.971C1268.02 83.3511 1353.44 29.6812 1444.56 8.45885C1507.29 -6.09866 1567.4 -0.836905 1628.46 -31.1797C1685.13 -59.4177 1759.26 -117.472 1817.36 -65.2056" stroke="white" stroke-miterlimit="10"/>
<path d="M-161.274 61.9547C-95.3398 97.3839 -34.9888 95.63 31.3022 62.6562C94.2668 31.4364 149.866 -23.8121 210.454 -62.9245C251.322 -89.2334 284.111 -96.2491 326.404 -75.5528C361.451 -58.5398 394.477 -34.511 425.603 -5.22054C474.074 40.5568 517.555 97.0331 569.946 133.339C644.554 185.08 728.546 196.831 809.925 196.305C941.319 195.253 1071.17 148.774 1193.3 78.7923C1279.55 29.3317 1363.66 -33.8095 1455.37 -59.2413C1516.08 -76.079 1576.19 -68.0109 1635.59 -97.126C1689.17 -123.435 1758.31 -177.982 1811.89 -122.909" stroke="white" stroke-miterlimit="10"/>
<path d="M-157.355 26.6996C-87.738 64.5842 -22.635 65.2858 46.3884 23.1918C100.324 -9.6065 147.488 -60.4701 199.523 -98.5301C241.46 -129.224 274.487 -132.731 318.324 -109.229C350.163 -92.0406 380.101 -69.2397 408.138 -41.177C456.371 7.23111 498.664 67.0397 552.244 103.346C630.058 156.139 718.803 163.33 803.151 160.348C939.535 155.437 1072.59 109.134 1198.17 31.2598C1285.25 -22.7609 1369.6 -93.6191 1463.21 -119.928C1521.07 -136.064 1579.04 -125.014 1635.71 -151.849C1689.53 -177.106 1754.39 -230.425 1807.26 -172.896" stroke="white" stroke-miterlimit="10"/>
<path d="M1680.26 -218.673C1678.48 14.5977 1653.05 272.248 1575.6 479.21C1553.38 538.493 1521.54 588.304 1496 644.429C1469.74 702.309 1429.47 774.921 1426.86 847.708C1425.43 885.418 1435.29 921.899 1445.51 955.925C1465.82 1023.8 1490.89 1088.87 1514.06 1154.64" stroke="white" stroke-miterlimit="10"/>
<path d="M1652.7 -204.116C1649.49 -40.8261 1625.61 126.498 1593.89 282.596C1580.59 348.017 1565.38 420.279 1541.5 479.736C1520.24 532.705 1484.95 569.537 1459.65 617.945C1428.52 677.578 1385.16 754.224 1378.15 831.747C1374.7 869.983 1381.6 908.043 1390.39 943.647C1407.85 1014.51 1432.8 1081.86 1455.96 1149.03" stroke="white" stroke-miterlimit="10"/>
<path d="M1623.83 -190.437C1619.55 -25.5685 1587.6 142.457 1554.45 299.081C1541.98 358.188 1530.45 430.449 1506.93 483.242C1486.5 529.019 1448.24 551.645 1423.65 592.511C1387.66 652.32 1342.04 733.526 1330.51 814.031C1314.47 925.229 1367.82 1049.41 1399.77 1143.07" stroke="white" stroke-miterlimit="10"/>
<path d="M1593.54 -180.437C1589.38 -15.7448 1550.41 151.052 1517.03 306.975C1507.76 350.121 1498.5 393.267 1488.87 436.063C1484.95 453.602 1480.56 472.369 1472.6 487.101C1463.21 504.465 1450.97 511.305 1437.67 519.724C1418.9 531.826 1402.5 547.436 1387.77 568.834C1347.62 627.414 1300.1 713.005 1284.06 794.562C1261.37 910.496 1311.26 1037.3 1344.89 1136.75" stroke="white" stroke-miterlimit="10"/>
<path d="M1561.7 -176.579C1559.08 -9.78096 1513.22 158.244 1479.6 315.922C1470.93 356.613 1463.92 397.83 1455.72 438.696C1452.52 454.657 1448.6 473.95 1440.64 486.578C1430.9 502.012 1418.42 503.065 1405.23 507.625C1384.92 514.465 1367.69 527.97 1352.01 548.316C1324.92 583.57 1302.35 629.522 1280.61 671.792C1263.5 705.116 1247.23 740.37 1237.96 780.184C1210.16 898.749 1256.97 1027.31 1292.02 1130.62" stroke="white" stroke-miterlimit="10"/>
<path d="M1528.79 -177.983C1528.79 -4.87125 1477.23 167.363 1443.13 331.004C1434.46 372.747 1431.73 446.938 1408.68 479.21C1397.51 494.82 1383.5 493.592 1369.24 496.574C1348.09 500.783 1329.92 512.71 1313.17 532.354C1284.77 565.327 1262.08 611.982 1240.1 654.076C1221.45 689.68 1203.39 727.214 1192.7 769.834C1162.88 889.1 1205.77 1018.01 1240.46 1123.95" stroke="white" stroke-miterlimit="10"/>
<path d="M1497.54 -176.053C1499.45 -3.99341 1446.7 166.137 1412.01 327.848C1403.22 369.065 1400.13 442.554 1375.77 473.072C1363.77 488.156 1348.21 485.876 1333.48 487.981C1311.74 491.138 1292.61 501.486 1274.67 520.077C1244.85 551.122 1222.52 598.828 1200.19 640.747C1180.94 677.053 1162.05 714.937 1150.17 757.908C1117.02 877.701 1156.35 1007.84 1190.21 1116.94" stroke="white" stroke-miterlimit="10"/>
<path d="M1467.73 -170.967C1471.05 -2.94136 1418.07 163.33 1382.43 319.955C1372.8 362.225 1369.48 439.222 1342.39 468.687C1329.56 482.719 1313.17 479.562 1298.08 481.316C1276.22 483.947 1256.38 493.067 1237.73 510.606C1207.08 539.546 1185.34 587.252 1162.76 628.645C1143.04 664.776 1123.32 702.134 1110.14 744.579C1072.36 865.073 1108.12 996.617 1141.38 1109.92" stroke="white" stroke-miterlimit="10"/>
<path d="M1439.1 -162.898C1443.37 2.84685 1389.08 164.909 1352.13 317.851C1342.04 359.945 1338.23 435.363 1310.55 463.777C1297.13 477.633 1280.02 474.651 1264.46 476.405C1242.12 478.86 1221.57 487.279 1202.33 504.292C1170.84 532.004 1149.22 579.886 1126.17 620.928C1105.86 657.058 1085.31 694.242 1070.81 736.336C1029.71 855.953 1061.78 987.146 1094.1 1102.73" stroke="white" stroke-miterlimit="10"/>
<path d="M1411.29 -152.199C1416.05 10.7392 1360.68 167.539 1322.19 316.447C1311.38 358.365 1306.99 431.854 1279.19 459.917C1265.29 473.948 1247.7 471.493 1231.78 473.422C1209.21 476.053 1188.07 484.121 1168.23 500.608C1136.15 527.267 1114.65 574.974 1091.01 615.664C1070.1 651.62 1048.71 688.101 1032.91 729.669C988.361 847.532 1016.76 978.023 1048 1095.18" stroke="white" stroke-miterlimit="10"/>
<path d="M1384.09 -139.045C1389.32 20.7369 1332.53 171.399 1292.26 315.395C1280.62 356.963 1275.51 428.523 1248.18 456.586C1234.05 471.143 1216.11 469.565 1199.71 472.02C1176.9 475.353 1155.4 483.245 1135.08 499.557C1102.65 525.515 1081.15 572.695 1056.91 612.86C1035.41 648.465 1013.08 684.069 996.086 724.936C947.972 840.343 972.92 969.607 1002.98 1088.17" stroke="white" stroke-miterlimit="10"/>
<path d="M1357 -123.962C1362.47 32.3121 1304.49 176.134 1262.44 314.518C1249.85 355.91 1244.14 425.015 1217.41 453.779C1203.28 469.038 1185.1 468.687 1168.35 471.844C1145.42 476.054 1123.68 484.297 1103.13 500.433C1070.57 526.041 1048.95 572.519 1024.12 611.807C1002.03 646.886 978.86 681.438 960.565 721.252C909.005 833.678 930.389 961.188 959.258 1080.81" stroke="white" stroke-miterlimit="10"/>
<path d="M1330.03 -107.3C1335.85 45.6415 1276.45 181.395 1232.74 313.991C1219.19 355.033 1212.9 421.681 1187 451.498C1172.98 467.634 1154.68 468.862 1137.69 473.071C1114.65 478.508 1092.79 487.103 1072 503.239C1039.45 528.495 1017.71 574.272 992.282 612.508C969.472 646.884 945.474 680.209 925.991 718.97C870.986 827.889 888.806 953.118 916.368 1073.61" stroke="white" stroke-miterlimit="10"/>
<path d="M1302.59 -89.2336C1308.89 60.0248 1248.42 187.359 1202.8 313.817C1188.07 354.683 1181.65 418.701 1156.7 449.745C1142.92 466.934 1124.63 470.091 1107.52 475.353C1084.59 482.368 1062.61 491.664 1041.82 507.975C1009.51 533.407 987.532 577.957 961.395 615.14C937.992 648.639 913.162 680.736 892.372 717.919C834.041 822.628 848.178 945.227 874.671 1066.6" stroke="white" stroke-miterlimit="10"/>
<path d="M1274.67 -70.1162C1281.56 75.4589 1220.14 193.848 1172.86 313.641C1156.82 354.332 1150.53 415.543 1126.76 448.166C1098.13 487.454 1046.57 486.577 1012.36 513.938C980.402 539.545 958.067 583.042 931.456 618.822C907.339 651.27 881.678 681.788 859.7 717.568C798.042 817.892 808.616 937.334 833.802 1059.23" stroke="white" stroke-miterlimit="10"/>
<path d="M1245.69 -50.4717C1253.41 91.4204 1191.27 200.339 1142.45 313.467C1129.97 342.406 1121.54 370.469 1113.82 402.566C1109.9 418.877 1104.91 434.487 1096.59 446.94C1069.03 489.209 1017.23 493.068 983.135 521.306C951.652 547.264 928.961 589.533 901.875 624.086C877.164 655.481 850.671 684.42 827.505 718.446C762.64 813.86 769.53 929.969 793.647 1052.39" stroke="white" stroke-miterlimit="10"/>
<path d="M1215.63 -30.4785C1224.42 107.906 1162.05 207.002 1111.92 313.465C1098.85 341.352 1090.29 367.661 1083.17 399.582C1079.48 416.42 1074.61 432.556 1066.77 446.236C1040.28 491.663 988.837 500.783 954.623 530.073C923.734 556.557 900.687 597.424 873.006 630.397C847.583 660.74 820.377 687.926 796.142 720.198C728.307 810.349 731.514 922.775 754.562 1045.9" stroke="white" stroke-miterlimit="10"/>
<path d="M1183.91 -10.4834C1194.25 126.322 1130.45 215.071 1079.01 316.447C1065.23 343.458 1058.22 367.136 1051.68 398.882C1048.48 414.667 1044.32 430.277 1037.55 443.607C1012.6 493.769 960.921 508.151 926.231 539.371C895.699 566.732 871.82 606.897 843.427 638.643C817.053 668.108 788.778 693.891 763.236 724.76C693.856 808.773 694.331 918.042 715.953 1039.41" stroke="white" stroke-miterlimit="10"/>
<path d="M1150.53 9.16113C1162.76 142.81 1099.56 220.859 1047.53 315.746C1033.15 341.879 1026.62 363.628 1020.8 395.724C1017.83 412.211 1013.91 428.523 1007.61 442.729C983.968 496.399 933.358 516.219 898.312 549.192C868.493 577.255 844.376 615.841 815.389 646.184C788.421 674.422 759.434 698.451 732.822 727.39C660.829 805.966 657.621 911.201 678.174 1033.45" stroke="white" stroke-miterlimit="10"/>
<path d="M1115 28.1025C1129.62 158.945 1067.84 225.944 1015.33 315.043C1000.48 340.3 994.659 360.645 989.67 392.742C986.937 409.93 983.373 426.768 977.433 442.202C955.099 499.556 905.915 524.461 870.393 559.715C841.287 588.655 816.814 625.662 787.47 654.426C759.789 681.437 730.208 703.536 702.527 730.722C677.817 754.926 655.007 783.866 642.058 824.03C621.505 888.224 630.296 961.537 640.87 1027.84" stroke="white" stroke-miterlimit="10"/>
<path d="M1076.99 46.168C1094.57 174.379 1034.81 230.329 982.421 313.991C958.304 352.577 961.987 396.951 946.899 441.325C926.109 502.186 878.351 532.528 842.354 570.062C813.961 599.703 789.369 635.308 759.55 662.493C731.275 688.276 700.981 708.621 672.469 733.878C647.045 756.328 622.929 783.163 608.791 822.45C586.457 884.363 594.298 956.975 604.158 1022.4" stroke="white" stroke-miterlimit="10"/>
<path d="M1036.36 62.6562C1046.1 120.886 1043.84 169.294 1017.59 217.176C997.629 253.482 970.78 279.09 948.802 312.589C924.329 349.948 929.675 395.55 916.131 440.45C896.767 504.819 850.672 540.248 814.2 580.588C786.519 611.106 761.809 645.308 731.752 670.915C702.883 695.47 671.995 714.236 642.651 737.388C616.634 758.084 591.329 782.99 575.766 821.225C551.649 880.859 558.659 952.769 567.806 1017.49" stroke="white" stroke-miterlimit="10"/>
<path d="M992.756 77.7383C1003.92 132.636 1005.59 180.167 979.45 226.12C960.68 259.269 934.781 280.491 914.347 310.834C890.231 346.614 896.884 395.022 885.122 439.396C867.183 507.097 822.871 547.437 785.805 590.584C758.837 621.979 734.126 654.602 703.713 678.806C674.25 702.308 642.768 719.321 612.711 740.719C586.1 759.837 559.607 782.813 542.975 819.996C517.314 877.524 523.373 948.733 531.927 1012.75" stroke="white" stroke-miterlimit="10"/>
<path d="M945.831 90.543C958.067 140.705 964.839 188.236 940.009 232.435C923.14 262.427 898.666 279.265 880.252 306.626C856.136 342.23 864.095 395.549 853.047 440.625C836.177 510.08 794.121 554.63 757.056 599.881C731.157 631.451 706.803 662.671 676.627 685.297C647.046 707.396 615.563 723.006 585.15 742.299C556.757 760.364 527.769 782.288 509.474 820.524C482.981 875.947 488.327 945.753 496.406 1008.54" stroke="white" stroke-miterlimit="10"/>
<path d="M895.342 101.241C908.41 146.141 920.884 194.9 898.074 237.871C883.58 265.232 860.652 277.86 844.851 302.59C822.041 338.195 831.189 391.689 821.923 436.589C806.597 510.429 765.967 560.24 727.832 608.998C703.003 640.744 679.124 670.561 649.186 691.958C618.06 714.058 584.796 728.44 552.719 747.031C524.207 763.693 494.863 784.039 476.092 821.221C449.006 874.716 453.639 943.294 461.124 1005.21" stroke="white" stroke-miterlimit="10"/>
<path d="M833.683 110.011C847.821 149.65 866.948 198.76 848.415 242.608C837.842 267.514 817.526 277.511 805.528 299.961C787.351 333.812 797.33 393.095 789.727 434.663C775.708 511.134 736.504 565.506 697.894 616.896C673.658 649.168 649.898 677.757 619.841 697.927C588.24 719.149 554.619 732.304 522.187 749.843C493.199 765.453 463.143 784.571 443.422 821.052C415.266 872.969 419.067 940.846 426.077 1002.41" stroke="white" stroke-miterlimit="10"/>
<path d="M748.147 115.974C764.186 149.299 791.035 196.304 783.431 241.555C779.867 262.953 766.562 275.581 761.81 295.751C756.701 316.974 763.71 344.335 763.354 366.961C762.998 388.359 761.453 409.581 758.008 430.277C744.821 509.73 705.973 568.311 667.125 623.034C615.922 694.945 555.69 717.22 490.824 751.421C461.718 766.856 431.543 785.974 411.347 821.929C382.953 872.442 385.092 938.74 391.15 999.952" stroke="white" stroke-miterlimit="10"/>
<path d="M676.986 113.693C695.994 146.316 724.744 187.884 727.358 234.187C728.427 252.779 721.417 268.74 721.774 286.805C722.249 311.36 731.516 330.653 731.397 356.786C731.397 378.886 729.852 401.16 726.526 422.734C713.933 505.518 674.847 569.01 635.405 627.416C585.984 700.379 522.544 718.97 458.748 752.47C429.404 767.904 399.348 787.197 378.795 822.977C350.402 872.613 350.877 937.333 356.104 998.369" stroke="white" stroke-miterlimit="10"/>
<path d="M618.178 104.222C640.156 137.897 668.431 175.255 678.886 221.208C682.806 238.396 681.024 256.812 684.707 274.001C686.964 284.7 692.31 292.592 695.28 302.414C699.557 316.095 699.795 328.022 699.913 343.807C700.151 366.958 698.607 389.935 695.399 412.56C682.806 499.028 643.364 567.431 603.091 629.871C555.451 703.535 489.041 719.32 426.314 752.82C396.971 768.43 366.914 788.249 346.124 824.029C317.73 872.964 316.899 936.455 321.294 997.492" stroke="white" stroke-miterlimit="10"/>
<path d="M569.709 88.79C593.707 122.991 621.387 158.771 636.475 203.847C642.296 221.211 644.078 240.679 649.9 258.043C659.523 286.807 667.957 294.174 668.433 328.375C668.789 352.404 667.245 376.432 663.918 399.935C650.969 490.437 610.814 563.575 569.471 630.049C523.258 704.24 454.591 718.096 392.933 751.946C363.47 768.082 333.651 788.778 312.861 824.558C284.586 873.317 282.567 935.932 286.131 996.968" stroke="white" stroke-miterlimit="10"/>
<path d="M529.91 68.2676C554.977 102.82 582.183 138.249 599.409 182.798C606.418 201.039 610.101 221.56 617.11 239.801C628.277 268.565 636.356 276.107 636.95 311.36C637.306 336.266 635.762 361.172 632.317 385.551C618.773 479.912 577.431 557.786 534.9 628.118C489.874 702.484 419.663 715.463 358.955 750.366C329.493 767.379 300.03 788.952 279.358 825.258C251.44 874.192 248.233 936.106 251.203 997.493" stroke="white" stroke-miterlimit="10"/>
<path d="M496.643 43.5376C521.829 78.4406 548.441 114.045 566.023 158.77C573.745 178.239 577.903 200.163 585.507 219.631C596.674 248.746 604.634 257.691 605.228 292.945C605.703 318.728 603.921 344.51 600.238 369.591C585.863 467.811 542.976 549.719 499.019 623.735C454.825 698.101 383.782 710.904 324.025 747.561C247.161 794.917 211.283 874.37 215.797 998.898" stroke="white" stroke-miterlimit="10"/>
<path d="M468.131 16.001C492.841 51.4302 518.621 87.5609 535.135 132.812C542.857 154.035 546.896 177.186 554.262 198.584C564.241 227.875 572.082 239.626 572.676 274.003C573.032 300.487 571.131 326.971 567.092 352.754C551.648 454.306 506.979 539.897 461.478 616.894C417.759 690.734 346.597 704.415 287.909 743.703C211.996 794.567 176.712 877.176 180.038 1001.18" stroke="white" stroke-miterlimit="10"/>
<path d="M442.352 -13.6406C466.469 22.6655 491.179 60.1993 506.03 106.854C513.514 130.181 516.722 155.262 523.493 178.764C530.503 203.494 538.343 221.209 539.056 248.921C539.769 279.614 537.393 309.782 532.403 339.598C514.94 442.202 469.082 529.197 422.631 607.246C399.584 646.008 375.467 662.494 343.272 681.612C313.215 699.502 282.446 715.463 253.34 736.685C177.426 792.109 142.023 878.402 144.28 1004.33" stroke="white" stroke-miterlimit="10"/>
<path d="M417.405 -43.9834C440.452 -6.62496 463.618 32.1366 476.568 79.6678C483.458 105.1 485.953 131.935 491.537 158.068C496.883 183.149 504.011 203.319 504.605 230.329C505.318 261.374 502.466 291.892 497.002 321.884C477.993 426.593 430.117 515.341 381.883 594.618C338.758 665.476 270.329 684.243 214.849 729.67C140.242 790.706 106.265 882.436 107.809 1008.54" stroke="white" stroke-miterlimit="10"/>
<path d="M391.387 -74.5007C413.484 -35.5637 434.63 4.25024 445.916 53.0092C452.332 80.8965 453.995 109.661 458.272 138.25C467.182 197.181 471.934 244.186 460.173 304.17C439.501 410.107 389.486 499.732 339.352 578.834C295.633 647.939 228.986 670.915 175.288 720.902C102.344 788.778 70.0299 886.472 70.9803 1013.46" stroke="white" stroke-miterlimit="10"/>
<path d="M362.4 -103.791C383.547 -63.2758 403.03 -21.8833 412.772 27.7525C418.712 58.0953 419.9 89.1396 423.108 120.184C429.166 179.466 434.156 227.875 421.682 286.806C399.229 392.918 346.956 482.017 294.921 559.716C250.133 626.715 185.862 655.129 134.421 710.202C63.3778 786.146 33.0835 890.855 33.9151 1019.42" stroke="white" stroke-miterlimit="10"/>
<path d="M328.422 -130.801C365.369 -54.6811 378.675 13.8969 385.328 104.925C389.604 163.857 394.475 212.966 381.051 270.67C356.578 375.554 302.048 463.074 248.112 537.44C201.542 601.634 140.597 636.887 91.7701 697.748C23.2218 783.164 -4.934 895.415 -4.2212 1026.43" stroke="white" stroke-miterlimit="10"/>
<path d="M287.556 -154.83C324.146 -75.9039 338.402 -0.836127 344.461 92.6478C348.263 150.703 352.777 199.462 338.165 255.587C311.553 357.665 254.766 442.204 199.049 511.309C150.222 571.994 93.197 616.193 47.5774 683.017C-18.0008 778.957 -43.7806 899.626 -42.8302 1034.5" stroke="white" stroke-miterlimit="10"/>
<path d="M243.123 -167.282C281.258 -86.4268 290.881 -12.7624 294.801 83.0014C297.177 141.582 303.949 190.867 290.168 248.045C266.408 346.439 212.353 428.873 156.517 490.085C103.532 547.964 48.1703 600.231 3.85753 673.544C-59.1071 777.902 -82.3921 906.113 -82.1545 1043.97" stroke="white" stroke-miterlimit="10"/>
<path d="M198.929 -149.218C218.531 -105.546 232.668 -61.8731 233.025 -8.55406C233.262 28.6289 226.728 64.4088 224.352 101.066C220.788 153.858 229.817 204.02 222.332 257.164C208.551 354.155 164.833 435.362 110.778 491.662C55.1792 549.542 -1.48888 603.036 -44.9701 682.313C-103.539 788.951 -121.953 919.442 -122.31 1054.32" stroke="white" stroke-miterlimit="10"/>
<path d="M152.239 -110.281C170.178 -64.1525 178.375 -21.3569 167.683 30.7344C160.674 65.1112 147.606 95.8048 138.933 129.129C125.509 180.694 138.577 234.54 137.626 288.385C135.963 380.641 107.807 457.112 57.0792 510.782C2.6683 568.31 -53.0494 616.017 -94.6298 695.995C-150.11 802.633 -163.297 934.879 -163.297 1066.07" stroke="white" stroke-miterlimit="10"/>
<path d="M101.513 -62.2236C134.302 43.5376 75.4951 93.3488 40.8052 173.854C20.3714 221.209 37.0036 268.39 44.2504 319.253C57.0809 407.651 49.9529 482.718 -1.48801 539.896C-54.3545 598.652 -111.141 639.869 -150.227 722.479C-199.292 826.311 -205.945 956.101 -205.232 1079.05" stroke="white" stroke-miterlimit="10"/>
<path d="M45.4393 -16.6221C71.1003 93.8747 -12.0605 141.757 -56.6109 207.529C-73.7182 232.785 -77.2823 249.447 -70.3918 282.947C-65.0458 308.73 -56.7297 333.285 -49.2452 357.839C-25.0098 436.766 -8.61522 509.904 -60.7689 572.343C-110.19 631.45 -167.334 663.372 -203.805 745.455C-248.831 846.832 -249.544 976.621 -248.118 1093.43" stroke="white" stroke-miterlimit="10"/>
</svg>
